<svg width="125" height="112" viewBox="0 0 125 112" fill="none" xmlns="http://www.w3.org/2000/svg">
<path d="M5.28 35.52C4.72 35.52 4 35.04 3.84 34.56C3.68 34.16 3.84 33.2 4.16 32.88C4.32 32.72 4.56 32.64 4.72 32.8C4.96 32.96 4.8 33.12 4.72 33.28C4.48 33.68 4.16 34.24 4.64 34.64C5.12 35.04 5.6 34.72 6.08 34.48C6.4 34.32 6.64 34.08 6.88 33.92C7.12 33.76 7.12 33.6 6.8 33.52C6.32 33.52 5.84 33.28 5.76 32.8C5.68 32.32 6.16 32 6.56 31.68C7.52 31.04 8.4 31.36 8.8 32.4C8.88 32.64 8.96 32.88 9.2 32.88C10.16 33.04 11.2 32.96 12.24 32.96C12.56 32.96 12.96 32.88 13.36 32.88C13.44 32.88 13.68 32.8 13.68 33.04C13.68 33.2 13.52 33.2 13.36 33.28C11.84 33.44 10.4 33.76 9.04 33.44C8.64 33.36 8.32 33.6 8.08 33.92C7.52 34.56 6.88 34.96 6.16 35.28C5.84 35.44 5.6 35.52 5.28 35.52ZM17.4588 36.08C16.4988 36.08 15.7788 35.6 15.5388 34.64C15.4588 34.32 15.3788 34.48 15.2188 34.56C14.7388 34.88 14.2588 35.2 13.6988 35.52C13.2988 35.84 12.8187 35.84 12.3387 35.52C12.0187 35.28 11.9387 34.96 12.0987 34.56C12.4187 34 12.8187 33.44 13.2988 33.04C13.4588 32.88 13.6188 32.72 13.8588 32.96C14.0988 33.2 14.0188 33.36 13.7788 33.6C13.6188 33.84 13.3788 34.16 13.1387 34.4C13.0587 34.56 12.8987 34.72 13.0587 34.88C13.2188 35.04 13.2988 34.88 13.4588 34.8C14.2588 34.4 14.8188 33.84 15.5388 33.28C15.8587 33.12 16.1788 32.88 16.4988 32.64C16.8188 32.48 17.0588 32.48 17.2188 32.64C17.4588 32.88 17.2988 33.12 17.1388 33.28C16.8988 33.68 16.5788 34.08 16.4988 34.56C16.3388 35.04 16.4988 35.28 17.0588 35.36C17.5388 35.44 17.9388 35.28 18.3388 35.2C19.8588 34.64 21.2188 33.84 22.6588 33.12C22.8988 33.04 23.2188 32.8 23.2988 32.96C23.4588 33.28 23.0588 33.36 22.8188 33.52C21.7788 34.32 20.6588 35.04 19.3788 35.52C18.8188 35.76 18.1788 36.08 17.4588 36.08ZM26.1881 36.72C25.5481 36.64 24.9881 36.48 24.6681 35.92C24.3481 35.28 24.6681 34.8 25.0681 34.32C25.3881 33.92 25.7081 33.44 26.1081 33.04C26.1881 32.88 26.2681 32.8 26.1881 32.64C26.0281 32.56 25.9481 32.64 25.8681 32.72C25.0681 32.96 24.2681 33.2 23.4681 33.36C23.1481 33.44 22.9081 33.44 22.5881 33.36C21.8681 33.12 21.7081 32.72 22.1081 32.08C22.9081 30.8 23.9481 29.76 25.1481 28.8C25.2281 28.72 25.3881 28.64 25.4681 28.56C25.7881 28.4 26.0281 28.48 26.3481 28.72C26.5881 28.88 26.5081 29.2 26.4281 29.44C26.1081 30.16 25.7081 30.8 25.3081 31.44C25.2281 31.6 24.9881 31.76 25.1481 31.92C25.2281 32.08 25.4681 32 25.6281 31.92C26.1881 31.76 26.7481 31.52 27.3081 31.36C27.6281 31.28 27.9481 31.28 28.1081 31.6C28.3481 31.92 28.1081 32.08 27.8681 32.32C26.9881 33.12 26.1881 34.08 25.5481 35.04C25.3881 35.28 25.2281 35.44 25.3081 35.68C25.4681 36 25.7881 36 26.0281 36C27.1481 35.84 28.1881 35.36 29.1481 34.8C30.0281 34.32 30.9081 33.92 31.6281 33.2C31.8681 32.96 32.1881 32.96 32.4281 32.88C32.5881 32.88 32.6681 32.88 32.6681 32.96C32.6681 33.04 32.6681 33.12 32.5881 33.2C30.7481 34.64 28.9081 36.16 26.5881 36.64C26.4281 36.64 26.2681 36.64 26.1881 36.72ZM22.9881 32.64C23.3881 32.64 23.4681 32.24 23.7081 32.08C24.5081 31.44 24.9881 30.56 25.5481 29.76C25.6281 29.68 25.7081 29.52 25.5481 29.44C25.4681 29.36 25.3881 29.44 25.3081 29.52C24.5081 30.24 23.7081 30.8 23.1481 31.68C22.9881 31.84 22.9081 32.08 22.8281 32.32C22.7481 32.48 22.8281 32.64 22.9881 32.64ZM47.1512 51.84C45.8712 51.84 45.3912 51.12 45.6312 50C45.7912 49.12 46.2712 48.4 46.7512 47.68C48.5112 45.04 50.6712 42.72 53.0712 40.72C54.4312 39.68 55.7112 38.56 56.9913 37.44C57.2313 37.28 57.2313 37.04 57.2313 36.8C57.0713 35.76 56.8313 34.8 56.4313 33.84C56.2713 33.44 56.1113 33.04 56.1113 32.64C55.8712 31.52 56.8313 30.4 58.0313 30.56C58.1113 30.56 58.2713 30.56 58.3513 30.64C58.5113 30.64 58.5913 30.72 58.5113 30.8C58.5113 30.96 58.4313 30.96 58.3513 30.96C58.0313 30.96 57.7913 31.04 57.5513 31.12C56.6713 31.6 56.5913 31.92 56.8313 32.88C57.1513 34 57.7113 35.12 57.8713 36.32C57.9513 36.72 58.1913 36.48 58.3513 36.4C59.5513 35.52 60.6713 34.64 61.7913 33.76C62.1913 33.52 62.5913 33.2 62.9913 32.96C63.1513 32.8 63.3113 32.8 63.3913 32.96C63.5513 33.12 63.4713 33.2 63.3913 33.36C63.3113 33.44 63.1513 33.52 63.0713 33.6C61.3913 34.72 59.8713 36 58.2713 37.28C58.1113 37.36 57.9513 37.52 57.9513 37.84C58.1113 40.88 56.9113 43.52 55.0712 45.92C54.0312 47.28 52.8312 48.48 51.5512 49.6C50.4312 50.56 49.1512 51.36 47.7112 51.76C47.4712 51.84 47.2312 51.84 47.1512 51.84ZM46.2712 50.48C46.1912 51.36 46.4312 51.52 47.2312 51.36C47.9512 51.2 48.5112 50.96 49.1512 50.64C51.3912 49.28 53.2312 47.52 54.7512 45.44C56.1113 43.44 57.1513 41.2 57.3113 38.8C57.3113 38.56 57.4713 38.4 57.2313 38.24C56.9913 38.16 56.9113 38.32 56.7513 38.4C55.3112 39.68 53.7912 40.88 52.3512 42.16C50.5112 43.84 48.8312 45.68 47.3912 47.68C46.8312 48.56 46.2712 49.36 46.2712 50.48ZM63.9519 35.52C63.3919 35.52 62.6719 35.04 62.5119 34.56C62.3519 34.16 62.5119 33.2 62.8319 32.88C62.9919 32.72 63.2319 32.64 63.3919 32.8C63.6319 32.96 63.4719 33.12 63.3919 33.28C63.1519 33.68 62.8319 34.24 63.3119 34.64C63.7919 35.04 64.2719 34.72 64.7519 34.48C65.0719 34.32 65.3119 34.08 65.5519 33.92C65.7919 33.76 65.7919 33.6 65.4719 33.52C64.9919 33.52 64.5119 33.28 64.4319 32.8C64.3519 32.32 64.8319 32 65.2319 31.68C66.1919 31.04 67.0719 31.36 67.4719 32.4C67.5519 32.64 67.6319 32.88 67.8719 32.88C68.8319 33.04 69.8719 32.96 70.9119 32.96C71.2319 32.96 71.6319 32.88 72.0319 32.88C72.1119 32.88 72.3519 32.8 72.3519 33.04C72.3519 33.2 72.1919 33.2 72.0319 33.28C70.5119 33.44 69.0719 33.76 67.7119 33.44C67.3119 33.36 66.9919 33.6 66.7519 33.92C66.1919 34.56 65.5519 34.96 64.8319 35.28C64.5119 35.44 64.2719 35.52 63.9519 35.52ZM82.9306 32.96C82.6906 33.28 82.4506 33.36 82.1306 33.52C79.6506 34.24 77.1706 34.96 74.6906 35.6C74.0506 35.84 73.4906 35.84 72.8506 35.92C72.2906 35.92 71.7306 35.68 71.4106 35.12C71.0906 34.64 71.3306 34.08 71.6506 33.68C71.9706 33.2 72.3706 32.72 72.7706 32.24C72.8506 32.08 73.0106 32 73.2506 32C73.4906 31.92 73.6506 31.92 73.8106 32.16C73.8906 32.4 73.8106 32.56 73.6506 32.72C73.1706 33.2 72.6906 33.6 72.2906 34.16C72.1306 34.4 71.9706 34.64 72.1306 34.96C72.2906 35.28 72.6906 35.28 72.9306 35.2C74.4506 35.04 75.8906 34.56 77.3306 34.16C79.0906 33.76 80.8506 33.36 82.6106 32.88C82.6906 32.88 82.7706 32.8 82.9306 32.96ZM83.0013 32.4C83.0013 32.8 83.0813 33.12 83.0813 33.36C83.0013 33.76 82.7613 34.08 82.6813 34.48C82.5213 34.88 82.6813 35.12 83.0813 34.96C84.3613 34.56 85.5613 34.08 86.7613 33.6C87.2413 33.44 87.5612 33.12 87.9613 32.96C88.1213 32.88 88.3613 32.96 88.5213 32.88C88.5213 32.96 88.5213 33.04 88.5213 33.12C88.2813 33.28 88.0413 33.44 87.8013 33.52C86.6013 34.16 85.3213 34.8 84.1213 35.36C83.5613 35.6 83.0013 35.76 82.3613 35.44C82.0412 35.28 81.8012 34.96 81.8812 34.48C82.1212 33.92 82.3613 33.28 82.6013 32.72C82.6813 32.64 82.7613 32.64 83.0013 32.4ZM83.7213 30.56C83.8013 30.24 83.8013 29.92 83.8813 29.6C83.8813 29.52 84.1213 29.52 84.2013 29.52C84.2813 29.52 84.3613 29.68 84.2813 29.76C84.2013 30.08 84.0413 30.32 83.9613 30.64C83.8813 30.64 83.8013 30.64 83.7213 30.56ZM100.626 33.12C100.146 33.12 99.8263 33.2 99.4263 33.36C97.1863 34.4 94.7063 34.88 92.3063 35.36C91.5063 35.52 90.7063 35.44 90.2263 34.64C90.0663 34.4 89.9863 34.48 89.8263 34.64C89.5863 34.88 89.2663 35.12 89.0263 35.44C88.4663 35.84 87.9863 35.76 87.6662 35.12C87.1862 34.16 87.4262 33.12 88.4663 32.64C88.7863 32.48 89.1063 32.24 89.4263 32.08C89.7463 31.92 89.9863 32 90.1463 32.24C90.3863 32.48 90.4663 32.64 90.0663 32.8C89.5063 32.88 89.1063 33.2 88.6263 33.44C88.4663 33.6 88.3063 33.76 88.2263 34C88.2263 34.24 88.2263 34.48 88.3863 34.56C88.6263 34.8 88.7063 34.48 88.7863 34.4C89.4263 33.92 89.9863 33.36 90.5462 32.88C90.7863 32.64 90.9463 32.48 91.2663 32.72C91.5063 32.88 91.5063 33.12 91.3463 33.44C91.1863 33.76 90.8663 34.08 91.1063 34.4C91.4263 34.72 91.8263 34.64 92.2263 34.56C94.7863 34.24 97.2663 33.52 99.7463 32.88C100.066 32.8 100.386 32.56 100.626 33.04V33.12ZM99.2975 35.6C99.0575 34.56 99.7775 33.68 100.098 32.72C100.978 30 102.178 27.52 103.618 25.12C104.338 23.84 105.217 22.72 106.018 21.52C107.618 19.2 109.298 16.96 110.978 14.64C112.658 12.4 114.498 10.16 116.338 8C117.698 6.4 119.058 4.8 120.578 3.28C121.298 2.56 121.938 1.84 122.738 1.28C122.898 1.12 123.138 0.959997 123.378 0.799999C123.858 0.559998 124.258 0.559998 124.658 0.879998C124.978 1.2 124.978 1.6 124.898 2C124.578 3.52 123.858 4.88 123.058 6.24C122.258 7.76 121.378 9.2 120.338 10.56C119.458 11.84 118.578 13.2 117.538 14.4C116.818 15.2 116.178 16.16 115.458 17.12C114.418 18.48 113.298 19.84 112.258 21.28C109.858 24.64 106.978 27.6 104.178 30.64C103.058 31.84 101.938 32.96 100.658 34.08C100.098 34.56 99.7775 35.92 100.098 36.64C100.338 37.04 100.658 37.12 101.058 37.04C101.778 36.96 102.418 36.56 102.978 36.16C104.338 35.2 105.618 34.16 106.978 33.12C107.058 33.04 107.218 32.8 107.378 32.96C107.538 33.12 107.298 33.28 107.138 33.36C105.778 34.4 104.578 35.6 103.298 36.72C102.738 37.12 102.178 37.44 101.538 37.6C100.178 37.92 99.3775 37.2 99.2975 35.6ZM124.338 1.52C124.338 1.12 124.018 0.959997 123.618 1.2C122.498 1.84 121.778 2.8 120.978 3.6C119.378 5.28 117.858 6.96 116.418 8.64C114.978 10.48 113.458 12.24 112.018 14.08C110.418 16.24 108.818 18.48 107.298 20.72C105.698 23.12 104.018 25.52 102.738 28.08C102.098 29.44 101.538 30.8 100.978 32.16C100.898 32.32 100.738 32.56 100.978 32.72C101.218 32.8 101.298 32.56 101.458 32.4C102.978 30.96 104.418 29.36 105.858 27.76C108.258 25.36 110.338 22.72 112.498 20.08C113.858 18.32 115.218 16.48 116.658 14.72C119.138 11.52 121.458 8.24 123.298 4.64C123.778 3.68 124.178 2.64 124.338 1.52ZM5.2 93.6C5.68 93.36 6.08 93.04 6.64 92.8C6.8 92.72 7.04 92.64 7.28 92.64C8 92.64 8.16 92.8 8.16 93.44C8.16 94.16 8.24 94.16 8.88 94.08C9.76 93.92 10.56 93.52 11.28 93.12C11.52 92.96 11.84 92.72 12.08 92.96C12.24 93.2 11.92 93.44 11.68 93.6C10.8 94.16 9.84 94.72 8.8 94.8C7.92 94.96 7.44 94.48 7.28 93.68C7.2 93.36 7.04 93.44 6.8 93.52C6.16 93.76 5.68 94.24 5.12 94.64C4.8 94.96 4.4 95.2 4.08 95.52C3.84 95.68 3.52 95.68 3.28 95.44C3.04 95.2 3.12 94.96 3.28 94.72C3.68 94.16 4.08 93.68 4.16 92.96C4.24 92.64 4.72 92.56 5.04 92.64C5.36 92.72 5.28 93.04 5.2 93.28C5.2 93.36 5.12 93.44 5.2 93.6ZM21.7475 92.96C19.7475 93.84 17.6675 94.64 15.5875 95.28C14.7875 95.44 14.0675 95.68 13.2675 95.84C12.5475 95.92 11.9075 95.76 11.2675 95.44C10.6275 95.2 10.4675 94.64 10.3875 94C10.3875 93.84 10.4675 93.68 10.5475 93.6C11.1075 92.96 11.7475 92.32 12.5475 91.92C13.1075 91.52 13.7475 91.6 14.0675 92.16C14.3075 92.64 14.1475 93.12 13.5875 93.52C13.0275 93.84 12.3875 94.08 11.7475 94.32C11.5875 94.32 11.3475 94.32 11.3475 94.48C11.3475 94.72 11.5075 94.88 11.6675 94.96C12.1475 95.2 12.7075 95.2 13.1875 95.12C14.7075 94.88 16.1475 94.4 17.6675 93.92C18.7875 93.6 19.9875 93.2 21.1075 92.88C21.3475 92.8 21.5075 92.8 21.7475 92.88V92.96ZM31.3569 92.88C30.6369 93.84 29.5969 94.4 28.7169 95.2C27.5169 96.16 26.3169 97.2 25.1169 98.16C24.0769 99.04 22.9569 99.76 21.7569 100.4C21.0369 100.72 20.2369 100.56 19.5969 100.08C18.8769 99.6 18.5569 98.88 18.6369 98C18.8769 96.48 19.5169 95.12 20.3169 93.84C22.4769 90.08 25.1169 86.64 27.7569 83.28C27.9169 83.04 28.1569 82.88 27.9969 82.64C27.9169 82.48 27.5969 82.56 27.3569 82.56C25.9969 82.72 24.5569 82.72 23.1169 82.88C20.3969 83.12 17.7569 83.36 15.0369 83.68C11.9169 84.16 8.79687 84.48 5.67687 84.88C4.23687 85.12 2.79687 85.28 1.35687 85.04C1.03687 85.04 0.636875 84.88 0.396873 84.64C0.316874 84.48 0.156874 84.4 0.236875 84.24C0.316874 84.16 0.476874 84.16 0.556873 84.24C1.35687 84.24 2.15687 84.16 2.87687 84.24C5.43687 84.64 7.91687 83.92 10.4769 83.68C13.9969 83.36 17.5169 82.8 21.1169 82.48C23.5169 82.32 25.9169 82.16 28.3969 81.92C28.7169 81.92 28.9569 81.76 29.1169 81.52C30.0769 80.32 31.1169 79.2 32.0769 78C32.6369 77.36 33.1969 76.72 33.7569 76.08C33.8369 75.92 33.9169 75.84 34.0769 75.76C34.3169 75.52 34.6369 75.44 34.9569 75.68C35.2769 75.84 35.1169 76.16 35.0369 76.48C34.6369 77.2 34.1569 77.92 33.6769 78.56C33.0369 79.44 32.3169 80.32 31.6769 81.2C31.5169 81.28 31.3569 81.44 31.4369 81.6C31.5169 81.84 31.7569 81.76 31.9169 81.76C34.9569 81.76 38.0769 81.68 41.1169 81.76C44.6369 81.84 48.2369 82.08 51.7569 82.72C52.3169 82.88 52.7969 82.96 53.3569 83.44C52.5569 83.36 51.8369 83.12 51.1969 83.04C48.4769 82.72 45.7569 82.48 43.0369 82.4C40.7969 82.32 38.6369 82.16 36.3969 82.24C34.7169 82.24 33.0369 82.32 31.3569 82.32C30.7969 82.32 30.3969 82.56 30.0769 83.04C28.6369 84.8 27.1969 86.56 25.6769 88.24C24.5569 89.52 23.3569 90.64 22.3169 92C21.0369 93.76 19.9169 95.68 19.3569 97.92C19.1969 98.56 19.3569 99.2 19.9169 99.6C20.5569 100.08 21.1969 100 21.8369 99.68C22.8769 99.04 23.9169 98.32 24.9569 97.6C27.0369 95.92 28.9569 94.48 30.9569 92.96C31.0369 92.88 31.1969 92.8 31.3569 92.88ZM34.3969 76.4C34.1569 76.32 34.0769 76.48 33.9969 76.56C33.4369 77.2 32.7969 77.84 32.2369 78.56C31.5169 79.44 30.7169 80.4 29.9969 81.36C29.9169 81.52 29.7569 81.6 29.9169 81.76C30.0769 81.92 30.2369 81.84 30.3169 81.76C30.4769 81.68 30.5569 81.6 30.6369 81.52C31.7569 80.08 33.0369 78.72 33.9969 77.2C34.1569 76.96 34.3969 76.72 34.3969 76.4ZM26.2369 86.4C27.3569 85.36 28.3169 84.16 29.2769 83.04C29.4369 82.88 29.6769 82.72 29.5169 82.56C29.2769 82.32 29.0369 82.56 28.8769 82.72C28.7969 82.8 28.7969 82.88 28.7169 82.96C27.8369 84.08 26.9569 85.2 26.2369 86.4ZM42.7969 93.28C41.9169 93.44 41.0369 93.68 40.1569 93.84C39.6769 93.92 39.2769 94.08 38.7969 94.08C37.9969 94.08 37.4369 94.56 36.9569 95.12C36.3969 96 35.9169 96.48 34.9569 96.88C34.5569 97.04 34.0769 97.12 33.5969 96.96C33.1169 96.72 32.7169 96.48 32.7169 95.84C32.7169 95.52 32.6369 95.36 32.3169 95.6C32.1569 95.76 31.9169 95.92 31.7569 96C31.1169 96.4 30.6369 96.24 30.1569 95.76C29.9969 95.6 29.9169 95.36 29.9969 95.12C30.2369 94.48 30.3969 93.76 30.7969 93.12C30.9569 92.88 31.1169 92.64 31.4369 92.88C31.7569 93.12 31.7569 93.28 31.5969 93.6C31.2769 94 31.1969 94.48 31.0369 94.88C30.9569 95.04 30.8769 95.12 31.0369 95.2C31.1169 95.28 31.1969 95.2 31.2769 95.12C31.9969 94.72 32.6369 94.24 33.1169 93.76C33.3569 93.52 33.5969 93.44 33.8369 93.68C34.1569 93.84 34.1569 94.08 33.9969 94.32C33.6769 94.8 33.6769 95.36 33.6769 95.84C33.6769 96.16 33.8369 96.32 34.0769 96.16C35.2769 95.68 35.9969 95.2 36.7169 94.08C36.7969 93.84 36.7169 93.68 36.5569 93.6C36.2369 93.28 36.0769 92.96 36.1569 92.56C36.2369 92.16 36.6369 91.92 37.0369 92.08C37.4369 92.24 37.8369 92.4 37.9969 92.88C38.0769 93.36 38.3969 93.44 38.7969 93.36C40.0769 93.2 41.3569 92.96 42.5569 92.88C42.6369 92.88 42.7169 92.88 42.7969 92.88C42.9569 92.88 43.3569 92.8 43.3569 93.12C43.3569 93.44 42.9569 93.28 42.7969 93.28ZM44.1081 95.52C43.5481 95.52 42.8281 95.04 42.6681 94.56C42.5081 94.16 42.6681 93.2 42.9881 92.88C43.1481 92.72 43.3881 92.64 43.5481 92.8C43.7881 92.96 43.6281 93.12 43.5481 93.28C43.3081 93.68 42.9881 94.24 43.4681 94.64C43.9481 95.04 44.4281 94.72 44.9081 94.48C45.2281 94.32 45.4681 94.08 45.7081 93.92C45.9481 93.76 45.9481 93.6 45.6281 93.52C45.1481 93.52 44.6681 93.28 44.5881 92.8C44.5081 92.32 44.9881 92 45.3881 91.68C46.3481 91.04 47.2281 91.36 47.6281 92.4C47.7081 92.64 47.7881 92.88 48.0281 92.88C48.9881 93.04 50.0281 92.96 51.0681 92.96C51.3881 92.96 51.7881 92.88 52.1881 92.88C52.2681 92.88 52.5081 92.8 52.5081 93.04C52.5081 93.2 52.3481 93.2 52.1881 93.28C50.6681 93.44 49.2281 93.76 47.8681 93.44C47.4681 93.36 47.1481 93.6 46.9081 93.92C46.3481 94.56 45.7081 94.96 44.9881 95.28C44.6681 95.44 44.4281 95.52 44.1081 95.52ZM55.4069 96.72C54.7669 96.64 54.2069 96.48 53.8869 95.92C53.5669 95.28 53.8869 94.8 54.2869 94.32C54.6069 93.92 54.9269 93.44 55.3269 93.04C55.4069 92.88 55.4869 92.8 55.4069 92.64C55.2469 92.56 55.1669 92.64 55.0869 92.72C54.2869 92.96 53.4869 93.2 52.6869 93.36C52.3669 93.44 52.1269 93.44 51.8069 93.36C51.0869 93.12 50.9269 92.72 51.3269 92.08C52.1269 90.8 53.1669 89.76 54.3669 88.8C54.4469 88.72 54.6069 88.64 54.6869 88.56C55.0069 88.4 55.2469 88.48 55.5669 88.72C55.8069 88.88 55.7269 89.2 55.6469 89.44C55.3269 90.16 54.9269 90.8 54.5269 91.44C54.4469 91.6 54.2069 91.76 54.3669 91.92C54.4469 92.08 54.6869 92 54.8469 91.92C55.4069 91.76 55.9669 91.52 56.5269 91.36C56.8469 91.28 57.1669 91.28 57.3269 91.6C57.5669 91.92 57.3269 92.08 57.0869 92.32C56.2069 93.12 55.4069 94.08 54.7669 95.04C54.6069 95.28 54.4469 95.44 54.5269 95.68C54.6869 96 55.0069 96 55.2469 96C56.3669 95.84 57.4069 95.36 58.3669 94.8C59.2469 94.32 60.1269 93.92 60.8469 93.2C61.0869 92.96 61.4069 92.96 61.6469 92.88C61.8069 92.88 61.8869 92.88 61.8869 92.96C61.8869 93.04 61.8869 93.12 61.8069 93.2C59.9669 94.64 58.1269 96.16 55.8069 96.64C55.6469 96.64 55.4869 96.64 55.4069 96.72ZM52.2069 92.64C52.6069 92.64 52.6869 92.24 52.9269 92.08C53.7269 91.44 54.2069 90.56 54.7669 89.76C54.8469 89.68 54.9269 89.52 54.7669 89.44C54.6869 89.36 54.6069 89.44 54.5269 89.52C53.7269 90.24 52.9269 90.8 52.3669 91.68C52.2069 91.84 52.1269 92.08 52.0469 92.32C51.9669 92.48 52.0469 92.64 52.2069 92.64ZM61.3456 94.96C61.6656 94.96 61.7456 94.8 61.8256 94.64C62.7856 93.52 63.9856 92.72 65.2656 92.08C65.3456 92 65.5056 91.92 65.5856 91.92C65.7456 91.92 65.9056 92 65.9856 92.16C66.0656 92.32 65.9056 92.4 65.7456 92.48C64.6256 93.04 63.6656 93.84 62.7056 94.8C62.5456 94.88 62.3056 95.04 62.4656 95.28C62.5456 95.52 62.7856 95.36 63.0256 95.28C65.4256 94.72 67.8256 93.92 70.1456 92.96C70.3056 92.88 70.5456 92.72 70.6256 92.96C70.7056 93.12 70.5456 93.28 70.3856 93.36C69.6656 93.84 68.7856 94.08 67.9856 94.4C66.7856 94.96 65.5056 95.44 64.2256 95.76C63.5056 96 62.8656 96 62.1456 96C61.8256 96 61.5856 96 61.3456 95.68C61.1856 95.44 61.0256 95.6 61.0256 95.84C60.8656 96.48 60.7056 97.12 60.7056 97.76C60.7056 98.56 61.1056 98.88 61.9056 98.72C62.3056 98.56 62.6256 98.48 62.9456 98.16C63.0256 98.08 63.1856 98 63.2656 98.08C63.4256 98.24 63.3456 98.4 63.2656 98.48C62.7856 99.12 61.7456 99.44 60.9456 99.2C60.3056 98.96 59.9056 98.4 59.9856 97.52C60.1456 96.32 60.3856 95.12 60.8656 94C61.4256 92.56 61.9056 91.04 62.5456 89.6C64.3056 85.84 66.2256 82.16 68.5456 78.72C69.8256 76.8 71.0256 74.8 72.3056 72.88C73.9056 70.4 75.7456 68.08 77.5856 65.76C79.9056 62.8 82.2256 59.84 85.0256 57.28C85.6656 56.72 86.3056 56.16 87.0256 55.6C87.4256 55.28 87.9056 55.04 88.4656 55.12C89.0256 55.12 89.3456 55.44 89.2656 56C89.1856 56.88 88.9456 57.6 88.5456 58.32C87.1056 60.72 85.6656 63.12 83.9856 65.36C82.9456 66.8 81.9056 68.32 80.7856 69.76C79.5856 71.36 78.3856 72.88 77.1856 74.48C75.9856 76 74.7056 77.52 73.5056 79.04C72.2256 80.72 70.9456 82.4 69.5856 84.08C67.5856 86.56 65.5856 88.96 63.5856 91.44C62.8656 92.4 62.1456 93.28 61.5856 94.32C61.4256 94.48 61.3456 94.72 61.3456 94.96ZM62.7856 91.12C63.0256 91.04 63.1056 90.88 63.1856 90.8C64.0656 89.68 64.9456 88.56 65.8256 87.52C67.1856 85.84 68.5456 84.16 69.9056 82.56C71.4256 80.8 72.7056 78.96 74.1456 77.2C76.4656 74.32 78.8656 71.44 81.0256 68.48C83.1856 65.52 85.3456 62.56 87.2656 59.36C87.8256 58.4 88.4656 57.44 88.6256 56.24C88.7056 56 88.7856 55.76 88.5456 55.6C88.3056 55.36 88.0656 55.6 87.9056 55.68C86.0656 56.64 84.7856 58.24 83.3456 59.68C81.7456 61.28 80.3056 63.04 78.9456 64.88C77.6656 66.56 76.3056 68.24 75.0256 69.92C74.1456 71.12 73.3456 72.32 72.5456 73.52C71.0256 75.84 69.6656 78.16 68.1456 80.48C66.2256 83.52 64.6256 86.72 63.1856 89.92C63.0256 90.32 62.8656 90.64 62.7856 91.12ZM61.2137 111.84C59.9337 111.84 59.4537 111.12 59.6937 110C59.8537 109.12 60.3337 108.4 60.8137 107.68C62.5737 105.04 64.7337 102.72 67.1337 100.72C68.4937 99.68 69.7737 98.56 71.0538 97.44C71.2938 97.28 71.2938 97.04 71.2938 96.8C71.1338 95.76 70.8938 94.8 70.4938 93.84C70.3338 93.44 70.1738 93.04 70.1738 92.64C69.9337 91.52 70.8938 90.4 72.0938 90.56C72.1738 90.56 72.3338 90.56 72.4138 90.64C72.5738 90.64 72.6538 90.72 72.5738 90.8C72.5738 90.96 72.4938 90.96 72.4138 90.96C72.0938 90.96 71.8538 91.04 71.6138 91.12C70.7338 91.6 70.6538 91.92 70.8938 92.88C71.2138 94 71.7738 95.12 71.9338 96.32C72.0138 96.72 72.2538 96.48 72.4138 96.4C73.6138 95.52 74.7338 94.64 75.8538 93.76C76.2538 93.52 76.6538 93.2 77.0538 92.96C77.2138 92.8 77.3738 92.8 77.4538 92.96C77.6138 93.12 77.5338 93.2 77.4538 93.36C77.3738 93.44 77.2138 93.52 77.1338 93.6C75.4538 94.72 73.9338 96 72.3338 97.28C72.1738 97.36 72.0138 97.52 72.0138 97.84C72.1738 100.88 70.9738 103.52 69.1337 105.92C68.0937 107.28 66.8937 108.48 65.6137 109.6C64.4937 110.56 63.2137 111.36 61.7737 111.76C61.5337 111.84 61.2937 111.84 61.2137 111.84ZM60.3337 110.48C60.2537 111.36 60.4937 111.52 61.2937 111.36C62.0137 111.2 62.5737 110.96 63.2137 110.64C65.4537 109.28 67.2937 107.52 68.8137 105.44C70.1738 103.44 71.2138 101.2 71.3738 98.8C71.3738 98.56 71.5338 98.4 71.2938 98.24C71.0538 98.16 70.9738 98.32 70.8138 98.4C69.3737 99.68 67.8537 100.88 66.4137 102.16C64.5737 103.84 62.8937 105.68 61.4537 107.68C60.8937 108.56 60.3337 109.36 60.3337 110.48Z" fill="white"/>
</svg>
